<svg xmlns="http://www.w3.org/2000/svg" version="1.1" xmlns:xlink="http://www.w3.org/1999/xlink" xmlns:svgjs="http://svgjs.dev/svgjs" width="1000" height="1000" viewBox="0 0 1000 1000"><rect width="1000" height="1000" fill="#ffffff"></rect><g transform="matrix(0.7,0,0,0.7,149.57575757575756,395.2031426249976)"><svg viewBox="0 0 396 119" data-background-color="#ffffff" preserveAspectRatio="xMidYMid meet" height="300" width="1000" xmlns="http://www.w3.org/2000/svg" xmlns:xlink="http://www.w3.org/1999/xlink"><defs></defs><g id="tight-bounds" transform="matrix(1,0,0,1,0.2400000000000091,-0.115114154165326)"><svg viewBox="0 0 395.52 119.23022830833065" height="119.23022830833065" width="395.52"><g><svg viewBox="0 0 397.4975999999999 119.82637944987229" height="119.23022830833065" width="395.52"><g><rect width="397.4975999999999" height="3.6701237401371096" x="0" y="65.85131051667378" fill="#152232" opacity="1" stroke-width="0" stroke="transparent" fill-opacity="1" class="rect-o-0" data-fill-palette-color="secondary" rx="1%" id="o-0" data-palette-color="#152232"></rect></g><g transform="matrix(1,0,0,1,0.9887999999999693,79.12908802680333)"><svg viewBox="0 0 395.52 40.69729142306898" height="40.69729142306898" width="395.52"><g><svg viewBox="0 0 395.52 40.69729142306898" height="40.69729142306898" width="395.52"><g><svg viewBox="0 0 395.52 40.69729142306898" height="40.69729142306898" width="395.52"><g transform="matrix(1,0,0,1,0,0)"><svg width="395.52" viewBox="2.1500000953674316 -36.040000915527344 354.9200134277344 36.53000259399414" height="40.69729142306898" data-palette-color="#152232"><path d="M24.61-8.74L24.61-8.74Q24.61-11.69 22.53-13.42 20.46-15.14 14.94-16.69 9.42-18.24 6.88-20.07L6.88-20.07Q3.27-22.66 3.27-26.86L3.27-26.86Q3.27-30.93 6.63-33.48 9.99-36.04 15.21-36.04L15.21-36.04Q18.75-36.04 21.55-34.67 24.34-33.3 25.88-30.86 27.42-28.42 27.42-25.42L27.42-25.42 24.39-25.42Q24.39-29.05 21.9-31.26 19.41-33.47 15.21-33.47L15.21-33.47Q11.13-33.47 8.72-31.65 6.3-29.83 6.3-26.9L6.3-26.9Q6.3-24.19 8.47-22.49 10.64-20.78 15.43-19.47 20.21-18.16 22.68-16.76 25.15-15.36 26.39-13.4 27.64-11.45 27.64-8.79L27.64-8.79Q27.64-4.59 24.28-2.05 20.92 0.49 15.43 0.49L15.43 0.49Q11.67 0.49 8.53-0.85 5.4-2.2 3.77-4.61 2.15-7.03 2.15-10.16L2.15-10.16 5.15-10.16Q5.15-6.4 7.96-4.22 10.77-2.05 15.43-2.05L15.43-2.05Q19.58-2.05 22.09-3.88 24.61-5.71 24.61-8.74ZM55.56-35.55L58.59-35.55 58.59-11.28Q58.57-7.69 57-5.03 55.44-2.37 52.6-0.94 49.75 0.49 46.07 0.49L46.07 0.49Q40.45 0.49 37.07-2.58 33.69-5.64 33.57-11.06L33.57-11.06 33.57-35.55 36.55-35.55 36.55-11.5Q36.55-7.01 39.11-4.53 41.67-2.05 46.07-2.05 50.46-2.05 53.01-4.54 55.56-7.03 55.56-11.47L55.56-11.47 55.56-35.55ZM87.08-8.74L87.08-8.74Q87.08-11.69 85-13.42 82.93-15.14 77.41-16.69 71.89-18.24 69.36-20.07L69.36-20.07Q65.74-22.66 65.74-26.86L65.74-26.86Q65.74-30.93 69.1-33.48 72.46-36.04 77.68-36.04L77.68-36.04Q81.22-36.04 84.02-34.67 86.81-33.3 88.35-30.86 89.89-28.42 89.89-25.42L89.89-25.42 86.86-25.42Q86.86-29.05 84.37-31.26 81.88-33.47 77.68-33.47L77.68-33.47Q73.6-33.47 71.19-31.65 68.77-29.83 68.77-26.9L68.77-26.9Q68.77-24.19 70.94-22.49 73.12-20.78 77.9-19.47 82.69-18.16 85.15-16.76 87.62-15.36 88.86-13.4 90.11-11.45 90.11-8.79L90.11-8.79Q90.11-4.59 86.75-2.05 83.39 0.49 77.9 0.49L77.9 0.49Q74.14 0.49 71-0.85 67.87-2.2 66.24-4.61 64.62-7.03 64.62-10.16L64.62-10.16 67.62-10.16Q67.62-6.4 70.43-4.22 73.24-2.05 77.9-2.05L77.9-2.05Q82.05-2.05 84.57-3.88 87.08-5.71 87.08-8.74ZM120.7-35.55L120.7-32.98 108.51-32.98 108.51 0 105.51 0 105.51-32.98 93.35-32.98 93.35-35.55 120.7-35.55ZM147.38 0L143.69-9.96 127.55-9.96 123.89 0 120.74 0 134.19-35.55 137.05-35.55 150.5 0 147.38 0ZM135.61-31.88L128.48-12.52 142.74-12.52 135.61-31.88ZM159.39-35.55L159.39 0 156.38 0 156.38-35.55 159.39-35.55ZM195.49-35.55L195.49 0 192.49 0 172.06-30.42 172.06 0 169.03 0 169.03-35.55 172.06-35.55 192.51-5.1 192.51-35.55 195.49-35.55ZM212.92-16.92L212.92-14.45 201.23-14.45 201.23-16.92 212.92-16.92ZM242.95-35.55L242.95-32.98 230.77-32.98 230.77 0 227.76 0 227.76-32.98 215.61-32.98 215.61-35.55 242.95-35.55ZM269.63 0L265.94-9.96 249.81-9.96 246.14 0 243 0 256.45-35.55 259.3-35.55 272.76 0 269.63 0ZM257.86-31.88L250.73-12.52 264.99-12.52 257.86-31.88ZM289.87 0L277.98 0 277.98-35.55 288.48-35.55Q294.19-35.55 297.14-33.19 300.1-30.83 300.1-26.25L300.1-26.25Q300.1-23.49 298.6-21.45 297.09-19.41 294.48-18.53L294.48-18.53Q297.58-17.85 299.47-15.48 301.37-13.11 301.37-10.01L301.37-10.01Q301.37-5.3 298.33-2.65 295.29 0 289.87 0L289.87 0ZM290.23-17.09L280.98-17.09 280.98-2.54 289.99-2.54Q293.85-2.54 296.11-4.5 298.36-6.47 298.36-9.96L298.36-9.96Q298.36-13.26 296.2-15.17 294.04-17.09 290.23-17.09L290.23-17.09ZM280.98-32.98L280.98-19.6 289.18-19.6Q292.94-19.68 295.01-21.37 297.07-23.07 297.07-26.32L297.07-26.32Q297.07-29.74 294.93-31.36 292.8-32.98 288.48-32.98L288.48-32.98 280.98-32.98ZM311.64-35.55L311.64-2.54 329.2-2.54 329.2 0 308.62 0 308.62-35.55 311.64-35.55ZM354.58-19.58L354.58-17.04 337.96-17.04 337.96-2.54 357.07-2.54 357.07 0 334.96 0 334.96-35.55 356.95-35.55 356.95-32.98 337.96-32.98 337.96-19.58 354.58-19.58Z" opacity="1" transform="matrix(1,0,0,1,0,0)" fill="#152232" class="undefined-text-0" data-fill-palette-color="primary" id="text-0"></path></svg></g></svg></g></svg></g></svg></g><g transform="matrix(1,0,0,1,158.08636042651958,0)"><svg viewBox="0 0 81.32487914696078 56.24365674668134" height="56.24365674668134" width="81.32487914696078"><g><svg xmlns="http://www.w3.org/2000/svg" xmlns:xlink="http://www.w3.org/1999/xlink" version="1.1" x="8" y="0" viewBox="5.8905558586120605 11.800509452819824 88.61897277832031 76.29949188232422" style="enable-background:new 0 0 100 100;" xml:space="preserve" height="56.24365674668134" width="65.32487914696078" class="icon-icon-0" data-fill-palette-color="accent" id="icon-0"><g fill="#5ebc67" data-fill-palette-color="accent"><path d="M94.5 40.7c-0.1-1.3-1.1-2.3-2.3-2.5-0.5-0.1-3.8-0.9-6.7-1-0.7-1.8-1.4-3.6-2.4-5.3 0 0 0 0 0-0.1-0.3-0.7-0.5-1.4-0.5-2.1 0-1.5 0.7-3.1 2.1-4.7 0.9-1 1-2.4 0.3-3.5-0.7-1-1.9-1.5-3-1.2-0.7 0-2.8 0.3-5.6 1.6-3.2-2.9-6.8-5.3-10.7-7 0 0 0 0 0 0-10.5-4.5-22.3-4.1-32.5 1.2 0 0 0 0 0 0 0 0 0 0 0 0-3.2 1.7-6.2 3.8-8.8 6.4-3.4-1.9-6-2.2-6.8-2.2-1.2-0.3-2.4 0.2-3 1.2-0.7 1.1-0.6 2.5 0.3 3.5 2.2 2.4 2.7 4.6 1.6 6.8 0 0 0 0 0 0.1-1 1.8-1.8 3.7-2.5 5.6-2.6 0.2-5.4 0.9-5.8 1-1.2 0.2-2.2 1.2-2.3 2.5-0.1 1.3 0.6 2.5 1.8 3 2.4 0.9 3.9 2.3 4.4 4.1 0.1 0.4 0.2 0.7 0.2 1.2 0 0 0 0.1 0 0.1-0.2 9.8 3.5 19.5 10.2 26.7 0 0 0 0.1 0.1 0.1h0c0.5 0.6 1.1 1.1 1.7 1.7 0.3 0.3 0.7 0.6 1 0.9 0.2 0.2 0.4 0.3 0.5 0.4l0.2 0.1c0 0 0 0 0 0 0 0 0 0 0 0 0 0 0 0 0 0 0.1 0.1 0.2 0.2 0.3 0.3 0 0 0.1 0 0.1 0.1 0 0 0.1 0 0.1 0.1 0 0 0.1 0.1 0.1 0.1 0 0 0 0 0 0 0 0 0 0 0 0 0 0 0 0 0.1 0 3.5 2.8 7.5 4.9 11.8 6.3 3.8 1.2 7.8 1.9 11.7 1.9 4.1 0 8.3-0.7 12.3-2.1 0 0 0.1 0 0.1 0 5.6-1.9 10.7-5.1 14.7-9.3 0.1-0.1 0.1-0.1 0.1-0.2 7.2-7.3 11.2-17.4 11-27.6 0-0.6 0.1-1.1 0.3-1.6 0.5-1.6 2-2.9 4.3-3.7C93.9 43.2 94.6 42 94.5 40.7zM82.2 23.3C82.2 23.3 82.2 23.3 82.2 23.3c-1.8 2.1-2.7 4.3-2.6 6.5 0 1.1 0.3 2.2 0.8 3.3 0 0 0 0.1 0.1 0.1h0c0.7 1.3 1.3 2.7 1.9 4.1C75.4 37.7 67 40.4 58 45c-1.8-1.4-3.7-2.9-5.8-4.3 1.5-1 2.9-2 4.4-3 10.5-7.1 19.5-12.2 19.6-12.3 0.2-0.1 0.4-0.2 0.6-0.3C79.9 23.3 82.2 23.3 82.2 23.3zM33.9 19c5.9 1.7 10.7 4.4 14.4 8 3.5 3.5 5.1 7 5.7 8.7-1.5 1-2.9 2-4.4 3-9.5-6.7-18.7-12.3-22.8-14.7C29 22.1 31.4 20.4 33.9 19zM64.9 17.9c3.1 1.4 6.1 3.3 8.7 5.5-2.6 1.5-9.3 5.5-17 10.6-0.8-1.9-2.3-4.9-5.1-8C54.4 23 58.2 19.8 64.9 17.9zM60.4 16.2c-5 2-8.3 4.8-11.1 7.7-3.2-2.9-7-5.1-11.4-6.7C45.1 14.4 53 14.1 60.4 16.2zM17.1 23.3c0 0 2.5 0 5.9 2 0 0 0.2 0.1 0.6 0.4 2.2 1.3 13.6 7.9 25.1 16.1 2.2 1.6 4.3 3.1 6.3 4.7-1.8 1-3.5 2-5.3 3-2.5-1.5-5-2.9-7.6-4.2-9.6-4.9-18.2-7.6-25.4-7.9 0.5-1.5 1.2-2.9 1.9-4.2l0 0c0 0 0-0.1 0.1-0.1C20 30.8 20.5 27.3 17.1 23.3 17.1 23.3 17.1 23.3 17.1 23.3zM24.4 74.1C24.4 74.1 24.3 74.1 24.4 74.1c-6.3-6.8-9.8-15.8-9.5-24.9 0-0.1 0-0.1 0-0.2 0-0.7-0.1-1.3-0.3-1.8-0.7-2.6-2.6-4.7-5.7-6 1-0.2 3.7-0.8 6-0.9 0.1 0 0.1 0 0.2 0 0.2 0 0.3 0 0.6 0 6.9 0.1 15.6 2.7 25.2 7.6 2.7 1.4 5.4 2.9 8.1 4.6 14.7 9 24.3 18.7 25.6 21.9-0.1 0.1-0.1 0.1-0.2 0.2-4 4-8.7 6.8-14 8.6-3.2 1-6.5 1.6-9.9 1.7l-0.2 0c0 0 0 0 0 0-0.1 0-0.1 0-0.2 0-0.1 0-0.1 0-0.2 0 0 0 0 0 0 0-0.3 0-0.5 0-0.8 0-3.5 0-6.9-0.6-10.3-1.7 0 0 0 0 0 0-0.5-0.2-1-0.3-1.5-0.5 0 0 0 0 0 0-0.5-0.2-1-0.4-1.5-0.6 0 0-0.1 0-0.1-0.1-0.4-0.2-0.9-0.4-1.3-0.6-0.1 0-0.1-0.1-0.2-0.1-0.4-0.2-0.8-0.4-1.3-0.6-0.1 0-0.1-0.1-0.2-0.1-0.4-0.2-0.8-0.5-1.2-0.7 0 0-0.1-0.1-0.1-0.1-0.4-0.3-0.8-0.5-1.2-0.8 0 0 0 0-0.1 0-0.9-0.6-1.7-1.2-2.6-1.9l-0.2-0.2c-0.2-0.1-0.3-0.3-0.5-0.4-0.3-0.3-0.6-0.6-0.9-0.8C25.3 75.1 24.8 74.6 24.4 74.1zM85.6 46.4c-0.3 0.8-0.4 1.6-0.4 2.6 0.2 8.5-2.8 16.9-8.2 23.4C73.9 67 63.1 58 52.7 51.3c1.9-1.2 3.9-2.3 5.8-3.3 9.9-5.1 18.8-7.9 25.9-7.9h0.5c0.1 0 0.2 0 0.4 0 2.2 0.1 4.9 0.7 5.8 0.9C88.2 42.3 86.3 44.1 85.6 46.4z" fill="#5ebc67" data-fill-palette-color="accent"></path></g></svg></g></svg></g><g><rect width="81.55324042651961" height="3.6701237401371096" y="51.57353300654423" x="239.41123957348037" fill="#152232" data-fill-palette-color="secondary"></rect><rect width="81.55324042651961" height="3.6701237401371096" y="51.57353300654423" x="76.53311999999997" fill="#152232" data-fill-palette-color="secondary"></rect></g></svg></g></svg><rect width="395.52" height="119.23022830833065" fill="none" stroke="none" visibility="hidden"></rect></g></svg></g></svg>